<svg width="418" height="323" viewBox="0 0 418 323" fill="none" xmlns="http://www.w3.org/2000/svg">
<path d="M206.949 260.27C180.465 260.269 154.8 251.095 134.328 234.308C113.855 217.522 99.8415 194.163 94.6747 168.211C89.5079 142.259 93.5076 115.32 105.992 91.9845C118.477 68.6486 138.674 50.3597 163.142 40.2338C187.61 30.1079 214.836 28.7716 240.18 36.4527C265.523 44.1337 287.417 60.3568 302.131 82.3577C316.845 104.359 323.468 130.776 320.872 157.109C318.277 183.442 306.622 208.061 287.895 226.771C277.29 237.425 264.675 245.871 250.78 251.621C236.886 257.371 221.988 260.311 206.949 260.27ZM206.949 32.2723C144.239 32.2723 93.2203 83.2447 93.2203 145.898C93.2203 208.552 144.239 259.524 206.949 259.524C269.659 259.524 320.678 208.552 320.678 145.898C320.678 83.2447 269.659 32.2723 206.949 32.2723Z" fill="#3F3D56"/>
<path d="M216.592 247.64C214.472 255.469 207.211 260.318 207.211 260.318C207.211 260.318 203.387 252.473 205.507 244.644C207.626 236.815 214.887 231.966 214.887 231.966C214.887 231.966 218.711 239.811 216.592 247.64Z" fill="#6C63FF"/>
<path d="M197.307 247.64C199.427 255.469 206.688 260.318 206.688 260.318C206.688 260.318 210.512 252.473 208.392 244.644C206.272 236.815 199.011 231.966 199.011 231.966C199.011 231.966 195.187 239.811 197.307 247.64Z" fill="#6C63FF"/>
<path d="M200.422 245.958C206.239 251.615 206.949 260.312 206.949 260.312C206.949 260.312 198.228 259.836 192.412 254.179C186.595 248.521 185.884 239.824 185.884 239.824C185.884 239.824 194.605 240.3 200.422 245.958Z" fill="#3F3D56"/>
<path d="M213.477 245.958C207.66 251.615 206.949 260.312 206.949 260.312C206.949 260.312 215.67 259.836 221.487 254.179C227.304 248.521 228.014 239.824 228.014 239.824C228.014 239.824 219.294 240.3 213.477 245.958Z" fill="#3F3D56"/>
<path d="M197.307 44.5878C199.427 36.7586 206.688 31.9098 206.688 31.9098C206.688 31.9098 210.512 39.7546 208.392 47.5838C206.272 55.413 199.011 60.2618 199.011 60.2618C199.011 60.2618 195.187 52.417 197.307 44.5878Z" fill="#6C63FF"/>
<path d="M216.592 44.5878C214.472 36.7586 207.211 31.9098 207.211 31.9098C207.211 31.9098 203.387 39.7546 205.507 47.5838C207.626 55.413 214.887 60.2618 214.887 60.2618C214.887 60.2618 218.711 52.417 216.592 44.5878Z" fill="#6C63FF"/>
<path d="M213.477 46.2704C207.66 40.613 206.949 31.9163 206.949 31.9163C206.949 31.9163 215.67 32.392 221.487 38.0494C227.304 43.7068 228.014 52.4036 228.014 52.4036C228.014 52.4036 219.294 51.9279 213.477 46.2704Z" fill="#3F3D56"/>
<path d="M200.422 46.2704C206.239 40.613 206.949 31.9163 206.949 31.9163C206.949 31.9163 198.228 32.392 192.412 38.0494C186.595 43.7068 185.884 52.4036 185.884 52.4036C185.884 52.4036 194.605 51.9279 200.422 46.2704Z" fill="#3F3D56"/>
<path d="M153.658 4.72266H5.45447V155.293H153.658V4.72266Z" fill="#6C63FF"/>
<path d="M148.058 8.54431H16.035H8.552V16.5548V149.526H16.035V16.5548H148.058V8.54431Z" fill="#3F3D56"/>
<path opacity="0.3" d="M148.058 8.54431H16.035H8.552V16.5548V149.526H16.035V16.5548H148.058V8.54431Z" fill="black"/>
<path opacity="0.1" d="M126.678 16.5548H120.798H16.035V35.7796H120.798V149.526H148.058V16.5548H126.678Z" fill="black"/>
<path d="M0 0V158.071H156.61V0H0ZM148.058 149.526H8.55209V8.54438H148.058V149.526Z" fill="#3F3D56"/>
<path d="M109.907 163.898C109.907 163.898 116.988 177.607 120.972 180.702C124.955 183.798 114.554 187.556 114.554 187.556L102.382 168.542L109.907 163.898Z" fill="#A0616A"/>
<path d="M66.9741 130.512C66.9741 130.512 99.9481 139.135 102.825 144.884C105.702 150.632 114.554 164.562 114.554 164.562L101.497 174.954L88.6617 155.718L53.2533 139.798L66.9741 130.512Z" fill="#2F2E41"/>
<path d="M113.448 182.029C113.448 182.029 110.349 179.376 109.464 181.144C108.579 182.913 105.923 191.978 105.923 191.978C105.923 191.978 109.685 195.516 117.431 193.305C117.431 193.305 119.423 191.757 122.521 193.305C125.619 194.853 137.127 191.757 136.684 186.672C136.242 181.587 124.513 182.029 124.513 182.029C124.513 182.029 119.572 176.499 118.944 178.601C118.316 180.702 119.201 180.923 119.201 180.923C119.201 180.923 115.218 185.124 113.448 182.029Z" fill="#2F2E41"/>
<path d="M75.6049 177.386L73.3918 195.958H84.2357C84.2357 195.958 83.3505 181.587 83.5718 179.818C83.7931 178.049 75.6049 177.386 75.6049 177.386Z" fill="#A0616A"/>
<path d="M81.8013 136.482C81.8013 136.482 87.7765 145.326 84.2356 145.989C80.6948 146.652 77.8179 136.482 77.8179 136.482H81.8013Z" fill="#A0616A"/>
<path d="M36.6556 135.597C36.6556 135.597 32.2296 148.642 49.7125 152.18C67.1954 155.718 72.5066 158.592 72.5066 158.592L74.7196 181.144L89.9895 182.029C89.9895 182.029 97.2925 147.758 87.7765 143.336C78.2605 138.914 58.122 133.828 58.122 133.828L36.6556 135.597Z" fill="#2F2E41"/>
<path d="M74.7196 193.084C74.7196 193.084 77.8178 191.536 78.2604 191.536C78.2604 191.536 80.2056 187.054 83.7697 187.526L91.5386 198.833C91.5386 198.833 103.268 207.235 95.0794 209.446C86.8912 211.657 80.4734 209.888 80.4734 209.888L77.1539 207.456C77.1539 207.456 77.5965 205.024 74.7196 205.466C74.7196 205.466 68.7444 203.034 68.9657 201.265C69.187 199.496 73.8877 191.797 73.8877 191.797L74.7196 193.084Z" fill="#2F2E41"/>
<path d="M76.6006 92.5928C81.4895 92.5928 85.4528 88.6331 85.4528 83.7486C85.4528 78.8642 81.4895 74.9045 76.6006 74.9045C71.7118 74.9045 67.7485 78.8642 67.7485 83.7486C67.7485 88.6331 71.7118 92.5928 76.6006 92.5928Z" fill="#A0616A"/>
<path d="M69.4084 80.985C69.4084 80.985 61.4415 86.7336 59.8924 86.9547C58.3433 87.1758 67.1954 98.0099 67.1954 98.0099C67.1954 98.0099 71.4001 91.1557 74.0558 90.2713C76.7114 89.3869 69.4084 80.985 69.4084 80.985Z" fill="#A0616A"/>
<path d="M63.4332 88.2813C63.4332 88.2813 60.1137 83.8593 58.1219 83.8593C56.1302 83.8593 38.2047 85.8492 36.6556 100.663C35.1065 115.477 35.9917 141.346 35.9917 141.346C35.9917 141.346 34.6638 134.934 49.4911 137.587C49.4911 137.587 67.1953 133.828 70.2936 133.828C73.3918 133.828 74.7196 102.211 74.7196 102.211L69.6808 94.4055C69.6808 94.4055 67.4166 98.6731 63.4332 88.2813Z" fill="#D0CDE1"/>
<path d="M71.4 100.442L74.7196 102.211L78.703 126.532L84.2356 139.135C84.2356 139.135 78.2604 137.08 77.8178 139.545L68.9657 126.753L71.4 100.442Z" fill="#D0CDE1"/>
<path d="M74.6104 76.4955L79.4262 77.0965C79.3343 78.0757 79.3598 79.2886 80.2281 79.7517C80.6363 79.9695 81.1543 79.9583 81.5161 80.2466C82.3863 80.9397 81.5351 82.4304 82.0264 83.4281L83.4349 83.8004C83.6041 84.1167 83.8342 84.3965 84.112 84.6236C84.3899 84.8507 84.7099 85.0206 85.0538 85.1237C85.3976 85.2267 85.7584 85.2608 86.1155 85.2239C86.4726 85.1871 86.8188 85.0801 87.1344 84.909C88.0808 84.3412 88.5631 83.2564 88.9889 82.2388C89.4977 81.023 90.0169 79.7168 89.7622 78.4239C89.4886 77.0348 88.3528 75.8804 88.3012 74.4656C88.2781 73.8327 88.4119 73.0437 87.8779 72.7024C87.6322 72.5871 87.3676 72.5169 87.097 72.4954C85.8667 72.2387 85.1816 70.9665 84.2641 70.1083C82.3414 68.3098 79.3887 68.357 76.7594 68.5139C76.0068 68.5166 75.2601 68.6466 74.5509 68.8985C73.7493 69.3002 73.0405 69.8648 72.4701 70.5562C71.0601 72.0588 69.6873 73.6325 68.7572 75.4706C67.827 77.3086 67.3688 79.4562 67.8743 81.453C67.8245 81.2608 69.498 80.0036 69.7063 79.8021C70.3604 79.1693 70.4199 78.8671 70.7738 78.139C71.5989 76.4417 72.7462 76.2629 74.6104 76.4955Z" fill="#2F2E41"/>
<path opacity="0.1" d="M60.4456 104.974L61.1097 120.452L70.9534 131.985L61.9949 119.125L60.4456 104.974Z" fill="black"/>
<path opacity="0.1" d="M42.7416 109.176L50.4871 127.085L60.4456 135.266L49.823 127.969L42.7416 109.176Z" fill="black"/>
<path d="M84.8146 123.692L89.4947 126.908C89.7278 127.092 89.8906 127.35 89.9557 127.639C90.0208 127.928 89.9843 128.231 89.8523 128.497L89.2264 129.787L89.3713 129.887L88.6601 131.353L88.5151 131.254L83.3599 141.883C83.3064 142.022 83.2221 142.148 83.1133 142.251C83.0045 142.354 82.8739 142.431 82.7313 142.476C82.5887 142.522 82.4376 142.534 82.2893 142.514C82.1411 142.493 81.9994 142.439 81.8747 142.356L77.4765 139.334C77.2085 139.123 77.0214 138.826 76.9465 138.493C76.8716 138.161 76.9136 137.812 77.0654 137.507L83.5742 124.087C83.6189 123.971 83.6893 123.866 83.7802 123.78C83.8711 123.694 83.9801 123.63 84.0992 123.592C84.2183 123.554 84.3445 123.543 84.4683 123.56C84.5921 123.578 84.7105 123.623 84.8146 123.692Z" fill="#3F3D56"/>
<path d="M77.5504 137.39L82.5877 140.852L89.159 127.303L84.1213 123.841L77.5504 137.39Z" fill="white"/>
<path d="M75.3631 134.407C75.3631 134.407 84.1414 140.485 81.0823 142.386C78.0231 144.287 71.6508 135.85 71.6508 135.85L75.3631 134.407Z" fill="#A0616A"/>
<path d="M49.2698 89.3868C49.2698 89.3868 37.7621 92.7034 41.0816 102.874C41.8824 105.328 42.8505 107.961 43.8587 110.545C47.0301 118.673 50.5976 126.311 50.5976 126.311L60.6003 135.347L74.0557 139.135L75.6048 137.808C75.6048 137.808 76.0475 133.607 74.0557 133.165C72.064 132.723 68.9658 130.954 68.9658 130.954L60.9989 119.236C60.9989 119.236 60.7776 90.0501 49.2698 89.3868Z" fill="#D0CDE1"/>
<path d="M268 263.542H412.676V116.557L268 116.557V263.542Z" fill="#6C63FF"/>
<path d="M273.467 120.288H402.346H409.652V128.107V257.913H402.346V128.107H273.467V120.288Z" fill="#3F3D56"/>
<path opacity="0.3" d="M273.467 120.288H402.346H409.652V128.107V257.913H402.346V128.107H273.467V120.288Z" fill="black"/>
<path opacity="0.1" d="M294.338 128.107H300.078H402.346V146.874H300.078V257.913H273.467V128.107H294.338Z" fill="black"/>
<path d="M265.119 111.947V266.254H418V111.947H265.119ZM273.467 120.287H409.652V257.913H273.467V120.287Z" fill="#3F3D56"/>
<path d="M354.452 184.696C351.159 179.139 344.646 178.879 344.646 178.879C344.646 178.879 338.3 178.069 334.228 186.533C330.433 194.422 325.196 202.04 333.385 203.887L334.864 199.287L335.78 204.229C336.946 204.313 338.116 204.333 339.284 204.289C348.054 204.006 356.406 204.372 356.137 201.227C355.779 197.048 357.619 190.044 354.452 184.696Z" fill="#2F2E41"/>
<path d="M330.723 229.551L330.03 242.006L350.346 244.082L351.039 231.165L344.113 226.783L330.723 229.551Z" fill="#A0616A"/>
<path d="M385.322 256.884C384.713 250.999 360.526 248.328 354.713 247.771L352.54 246.504L351.847 239.123C351.847 239.123 330.377 237.278 328.761 237.047C327.145 236.817 325.759 239.815 325.759 240.507C325.759 241.007 325.457 244.578 324.244 246.695C321.625 248.798 313.639 255.415 313.639 257.922C313.639 260.92 319.988 298.632 319.988 298.632L320.68 306.475L327.145 307.628L326.683 283.178C326.683 283.178 328.991 269.108 325.759 265.187V263.573C325.759 263.573 335.239 261.105 338.58 258.418C339.548 258.21 342.269 257.698 343.772 258.144C343.978 258.265 344.215 258.389 344.479 258.516C344.513 258.547 344.545 258.579 344.575 258.613L344.601 258.574C348.923 260.595 360.01 263.144 364.545 262.419C368.042 261.886 371.617 262.535 374.703 264.265C372.163 267.494 374.01 276.72 374.01 276.72L374.241 296.556L377.473 300.478H381.859V289.637C381.859 289.637 386.015 263.573 385.322 256.884Z" fill="#2F2E41"/>
<path d="M342.612 199.912C346.82 199.912 350.231 196.504 350.231 192.3C350.231 188.096 346.82 184.688 342.612 184.688C338.405 184.688 334.994 188.096 334.994 192.3C334.994 196.504 338.405 199.912 342.612 199.912Z" fill="#A0616A"/>
<path d="M337.995 197.144C337.995 197.144 339.149 202.218 337.533 202.679C336.255 203.103 335.018 203.643 333.84 204.294L331.993 210.291V216.288L354.387 218.825L355.079 216.749V213.751L352.54 209.138L351.385 207.985C351.385 207.985 346.306 202.449 347.461 197.144H337.995Z" fill="#A0616A"/>
<path d="M357.965 215.481C357.965 215.481 358.657 223.554 357.965 227.244C357.272 230.935 357.503 236.471 357.503 236.471L352.424 235.548V223.092L353.578 216.403L357.965 215.481Z" fill="#A0616A"/>
<path d="M345.443 183.613C348.044 183.613 350.153 181.506 350.153 178.908C350.153 176.309 348.044 174.203 345.443 174.203C342.843 174.203 340.734 176.309 340.734 178.908C340.734 181.506 342.843 183.613 345.443 183.613Z" fill="#2F2E41"/>
<path d="M340.238 177.669C340.238 176.507 340.669 175.386 341.447 174.523C342.225 173.659 343.295 173.113 344.452 172.991C344.287 172.973 344.122 172.965 343.956 172.964C342.707 172.964 341.509 173.46 340.626 174.342C339.743 175.225 339.247 176.422 339.247 177.669C339.247 178.917 339.743 180.114 340.626 180.996C341.509 181.879 342.707 182.375 343.956 182.375C344.122 182.374 344.287 182.366 344.452 182.348C343.295 182.226 342.225 181.68 341.447 180.816C340.669 179.952 340.238 178.832 340.238 177.669Z" fill="#2F2E41"/>
<path d="M352.996 184.16L346.561 180.793L337.675 182.171L335.837 190.283L340.413 190.107L341.692 187.127V190.058L343.804 189.977L345.029 185.232L345.795 190.283L353.302 190.13L352.996 184.16Z" fill="#2F2E41"/>
<path d="M326.785 298.729C326.785 298.729 330.061 300.269 331.025 300.847C331.988 301.424 335.842 300.269 335.072 303.735C334.301 307.2 331.025 310.473 331.025 310.473C331.025 310.473 329.483 312.206 329.483 313.361C329.483 314.516 325.629 323.373 321.004 322.988C316.379 322.603 317.15 317.982 317.15 317.982L318.114 312.976C318.114 312.976 320.041 304.505 320.426 304.697C320.811 304.89 321.775 306.238 321.775 306.238C321.775 306.238 326.593 304.312 326.785 298.729Z" fill="#D0CDE1"/>
<path d="M374.831 292.963C374.831 292.963 371.555 294.503 370.591 295.08C369.628 295.658 365.774 294.503 366.545 297.968C367.315 301.434 370.591 304.707 370.591 304.707C370.591 304.707 372.133 306.44 372.133 307.595C372.133 308.75 375.987 317.606 380.612 317.221C385.237 316.836 384.466 312.216 384.466 312.216L383.503 307.21C383.503 307.21 381.576 298.738 381.19 298.931C380.805 299.123 379.841 300.471 379.841 300.471C379.841 300.471 375.024 298.546 374.831 292.963Z" fill="#D0CDE1"/>
<path d="M349.431 238.084V236.253H349.024V235.44C349.024 235.253 348.987 235.068 348.915 234.895C348.844 234.722 348.739 234.565 348.606 234.433C348.474 234.301 348.317 234.196 348.144 234.124C347.971 234.053 347.786 234.016 347.599 234.016H342.713C342.335 234.016 341.972 234.166 341.705 234.433C341.438 234.7 341.288 235.062 341.288 235.44V249.067C341.288 249.445 341.438 249.807 341.705 250.074C341.972 250.341 342.335 250.491 342.713 250.491H347.599C347.977 250.491 348.339 250.341 348.606 250.074C348.874 249.807 349.024 249.445 349.024 249.067V240.525H349.431V238.694H349.024V238.084H349.431Z" fill="#D0CDE1"/>
<path d="M345.359 238.897C345.809 238.897 346.174 238.533 346.174 238.084C346.174 237.635 345.809 237.27 345.359 237.27C344.91 237.27 344.545 237.635 344.545 238.084C344.545 238.533 344.91 238.897 345.359 238.897Z" fill="#3F3D56"/>
<path d="M324.951 211.56L320.796 228.628C320.796 228.628 319.18 232.319 322.874 234.625C326.567 236.932 334.879 239.93 334.879 239.93C334.879 239.93 342.266 250.079 343.19 245.927C344.113 241.776 337.649 236.47 337.649 236.47L326.337 229.32L330.723 217.326L324.951 211.56Z" fill="#A0616A"/>
<path d="M354.964 233.011C354.964 233.011 358.427 232.549 358.196 236.471C357.965 240.392 353.348 240.853 353.348 240.853C353.348 240.853 351.27 249.618 348.269 248.003C345.267 246.389 349.885 237.624 349.885 237.624L353.809 234.625L354.964 233.011Z" fill="#A0616A"/>
<path d="M332.685 210.06L336.379 202.449L328.991 204.986C328.991 204.986 324.836 207.062 324.605 211.906C324.374 216.749 329.915 219.287 329.915 219.287C329.915 219.287 330.838 226.206 330.377 227.129C329.915 228.052 330.377 231.742 330.377 231.742C330.377 231.742 339.265 229.32 343.651 232.319C348.038 235.317 351.616 233.587 351.616 233.587C351.616 233.587 351.385 227.821 353.232 226.898C355.079 225.976 356.695 221.593 355.079 218.825C355.079 218.825 358.773 219.287 358.542 215.827C358.311 212.367 356.464 209.368 353.463 207.984C350.462 206.601 350.13 206.379 350.13 206.379L354.386 214.212V216.288C354.386 216.288 346.851 211.483 339.396 211.082C336.964 210.971 334.576 211.757 332.685 213.289L332.685 213.29V210.06Z" fill="#2F2E41"/>
</svg>
